source: ddr thanks.


General
Format : MPEG-4
Format profile : Base Media
Codec ID : isom
File size : 699 MiB
Duration : 2h 19mn
Overall bit rate : 700 Kbps
Encoded date : UTC 2012-02-13 17:17:26
Tagged date : UTC 2012-02-13 17:17:26

Video
ID : 1
Format : AVC
Format/Info : Advanced Video Codec
Format profile : Main@L3.1
Format settings, CABAC : Yes
Format settings, ReFrames : 3 frames
Format settings, GOP : N=1
Codec ID : avc1
Codec ID/Info : Advanced Video Coding
Duration : 2h 19mn
Bit rate mode : Variable
Bit rate : 634 Kbps
Maximum bit rate : 14.0 Mbps
Width : 1 280 pixels
Height : 544 pixels
Display aspect ratio : 2.35:1
Frame rate mode : Constant
Frame rate : 23.976 fps
Color space : YUV
Chroma subsampling : 4:2:0
Bit depth : 8 bits
Scan type : Progressive
Bits/(Pixel*Frame) : 0.038
Stream size : 633 MiB (90%)
Title : Ladies vs Ricky Bahl - DVDRip - 720p - x264
Writing library : x264 core 120 r2120 0c7dab9
Encoding settings : cabac=1 / ref=3 / deblock=1:0:0 / analyse=0x1:0x111 / me=hex / subme=7 / psy=1 / psy_rd=1.00:0.00 / mixed_ref=1 / me_range=16 / chroma_me=1 / trellis=1 / 8x8dct=0 / cqm=0 / deadzone=21,11 / fast_pskip=1 / chroma_qp_offset=-2 / threads=12 / sliced_threads=0 / nr=0 / decimate=1 / interlaced=0 / bluray_compat=0 / constrained_intra=0 / bframes=3 / b_pyramid=0 / b_adapt=1 / b_bias=0 / direct=1 / weightb=1 / open_gop=0 / weightp=2 / keyint=240 / keyint_min=24 / scenecut=40 / intra_refresh=0 / rc_lookahead=40 / rc=2pass / mbtree=1 / bitrate=634 / ratetol=1.0 / qcomp=0.60 / qpmin=0 / qpmax=69 / qpstep=4 / cplxblur=20.0 / qblur=0.5 / vbv_maxrate=14000 / vbv_bufsize=14000 / nal_hrd=vbr / ip_ratio=1.40 / aq=1:1.00
Encoded date : UTC 2012-02-13 17:17:26
Tagged date : UTC 2012-02-13 17:17:57

Audio
ID : 2
Format : AAC
Format/Info : Advanced Audio Codec
Format profile : HE-AAC / LC
Codec ID : 40
Duration : 2h 19mn
Bit rate mode : Variable
Bit rate : 64.0 Kbps
Maximum bit rate : 71.9 Kbps
Channel(s) : 2 channels
Channel positions : Front: L R
Sampling rate : 48.0 KHz / 24.0 KHz
Compression mode : Lossy
Stream size : 63.9 MiB (9%)
Title : Ratzz audio
Language : Hindi
Encoded date : UTC 2012-02-13 17:17:53
Tagged date : UTC 2012-02-13 17:17:57


pls keep seeding and comment if you like.